<svg width="32" height="32" viewBox="0 0 32 32" fill="none" xmlns="http://www.w3.org/2000/svg">
<path fill-rule="evenodd" clip-rule="evenodd" d="M14.6835 7.53053C15.2857 8.41734 15.5888 9.47355 15.5888 10.7071C15.5888 11.9766 15.2857 12.9989 14.6759 13.7701C14.3312 14.2026 13.8293 14.5991 13.1646 14.9558C14.174 15.3444 14.9335 15.9562 15.4505 16.7932C15.9638 17.6282 16.2194 18.6466 16.2194 19.8423C16.2194 21.0739 15.9278 22.1819 15.3388 23.1584C14.9657 23.806 14.4979 24.3541 13.9392 24.7965C13.3085 25.3047 12.5661 25.6514 11.7062 25.8407C10.8464 26.03 9.9165 26.1217 8.91084 26.1217H0V5.3125H9.55666C11.9695 5.35236 13.6759 6.08971 14.6835 7.53053ZM3.94312 8.92751V13.519H8.75175C9.6078 13.519 10.3066 13.3456 10.8445 13.0009C11.3767 12.6581 11.6475 12.0483 11.6475 11.1754C11.6475 10.2049 11.2934 9.56522 10.5851 9.25234C9.97332 9.03711 9.19492 8.92751 8.24797 8.92751H3.94312ZM3.94312 16.9606V22.5087H8.74417C9.60211 22.5087 10.2707 22.3871 10.7479 22.144C11.6153 21.6896 12.0471 20.8248 12.0471 19.5473C12.0471 18.4612 11.6305 17.7199 10.7896 17.3134C10.318 17.0882 9.65893 16.9686 8.81235 16.9606H3.94312ZM28.1757 11.0479C29.1984 11.5282 30.0393 12.2874 30.7002 13.3237C31.3044 14.2384 31.6927 15.2986 31.8688 16.5043C31.9711 17.2117 32.0146 18.2301 31.9957 19.5593H21.3424C21.4049 21.1038 21.9106 22.1859 22.8727 22.8056C23.4579 23.1922 24.1606 23.3836 24.9825 23.3836C25.85 23.3836 26.5602 23.1504 27.1037 22.6801C27.403 22.425 27.6643 22.0723 27.8916 21.6199H31.7949C31.6927 22.5326 31.2192 23.4593 30.3783 24.4039C29.0696 25.8985 27.2344 26.6458 24.8784 26.6458C22.9314 26.6458 21.2118 26.0161 19.7288 24.7526C18.2364 23.4912 17.4959 21.4366 17.4959 18.5948C17.4959 15.9264 18.1664 13.8837 19.5073 12.4588C20.8519 11.0399 22.5943 10.3265 24.7363 10.3265C26.009 10.3265 27.1567 10.5656 28.1757 11.0479ZM22.4561 14.5234C21.9163 15.1093 21.5754 15.9044 21.4371 16.9048H28.0261C27.9579 15.8367 27.6151 15.0276 27.009 14.4736C26.3954 13.9216 25.6397 13.6446 24.7382 13.6446C23.7591 13.6446 22.9958 13.9375 22.4561 14.5234ZM20.4485 8.8737H28.9219V6.28501H20.4485V8.8737Z" fill="black"/>
</svg>
