<svg width="129" height="128" viewBox="0 0 129 128" fill="none" xmlns="http://www.w3.org/2000/svg">
<path fill-rule="evenodd" clip-rule="evenodd" d="M118.604 0.600036C119.183 0.958391 119.662 1.4588 119.994 2.05382C120.325 2.64884 120.5 3.31875 120.5 4.00004V124C120.5 125.061 120.079 126.078 119.328 126.828C118.578 127.579 117.561 128 116.5 128H92.5C91.4391 128 90.4217 127.579 89.6716 126.828C88.9214 126.078 88.5 125.061 88.5 124V112H80.5V124C80.5 125.061 80.0786 126.078 79.3284 126.828C78.5783 127.579 77.5609 128 76.5 128H4.5C3.43913 128 2.42172 127.579 1.67157 126.828C0.921427 126.078 0.5 125.061 0.5 124V80C0.500637 79.1609 0.765185 78.3431 1.2562 77.6626C1.74721 76.9821 2.43982 76.4732 3.236 76.208L48.5 61.12V36C48.5 35.2578 48.7066 34.5302 49.0965 33.8987C49.4865 33.2671 50.0444 32.7566 50.708 32.424L114.708 0.424036C115.318 0.118483 115.997 -0.0257547 116.679 0.0050524C117.361 0.0358595 118.024 0.240686 118.604 0.600036ZM48.5 69.552L8.5 82.88V120H48.5V69.552ZM56.5 120H72.5V108C72.5 106.939 72.9214 105.922 73.6716 105.172C74.4217 104.421 75.4391 104 76.5 104H92.5C93.5609 104 94.5783 104.421 95.3284 105.172C96.0786 105.922 96.5 106.939 96.5 108V120H112.5V10.472L56.5 38.472V120Z" fill="url(#paint0_linear_11_121)"/>
<path d="M16.5 88H24.5V96H16.5V88ZM32.5 88H40.5V96H32.5V88ZM16.5 104H24.5V112H16.5V104ZM32.5 104H40.5V112H32.5V104ZM64.5 72H72.5V80H64.5V72ZM80.5 72H88.5V80H80.5V72ZM64.5 88H72.5V96H64.5V88ZM80.5 88H88.5V96H80.5V88ZM96.5 72H104.5V80H96.5V72ZM96.5 88H104.5V96H96.5V88ZM64.5 56H72.5V64H64.5V56ZM80.5 56H88.5V64H80.5V56ZM96.5 56H104.5V64H96.5V56ZM64.5 40H72.5V48H64.5V40ZM80.5 40H88.5V48H80.5V40ZM96.5 40H104.5V48H96.5V40ZM96.5 24H104.5V32H96.5V24Z" fill="url(#paint1_linear_11_121)"/>
<defs>
<linearGradient id="paint0_linear_11_121" x1="6.0591" y1="-15.5329" x2="130.91" y2="-0.043552" gradientUnits="userSpaceOnUse">
<stop stop-color="#793EB4"/>
<stop offset="1" stop-color="#FF015C"/>
</linearGradient>
<linearGradient id="paint1_linear_11_121" x1="20.5767" y1="13.3204" x2="111.943" y2="25.4112" gradientUnits="userSpaceOnUse">
<stop stop-color="#793EB4"/>
<stop offset="1" stop-color="#FF015C"/>
</linearGradient>
</defs>
</svg>
