<svg version="1.2" xmlns="http://www.w3.org/2000/svg" viewBox="0 0 32 32" width="32" height="32"><style>.a{fill:#fff}.b{fill:none;stroke:#fff;stroke-linecap:round;stroke-linejoin:round;stroke-width:2}</style><path class="a" d="m9.5 13c1 2 2.3 3.9 4 5.6 1.7 1.7 3.6 3 5.6 4 0.2 0.1 0.3 0.1 0.4 0.1 0.4 0.2 0.9 0.1 1.2-0.2 0.1 0 0.2-0.1 0.3-0.3 0.5-0.5 0.8-0.7 1-0.9 0.9-0.6 2.1-0.6 3.1 0 0.2 0.2 0.5 0.4 0.9 0.9l0.3 0.3c0.8 0.7 1.1 1.1 1.3 1.5 0.4 0.8 0.4 1.7 0 2.5-0.2 0.4-0.5 0.8-1.3 1.5l-0.2 0.3c-0.7 0.7-1.1 1.1-1.6 1.4-0.6 0.3-1.4 0.5-2.1 0.5-0.6 0-1-0.1-1.7-0.3-4.3-1.2-8.3-3.5-11.6-6.9-3.4-3.3-5.6-7.3-6.8-11.5-0.3-0.8-0.4-1.2-0.4-1.8 0-0.6 0.2-1.5 0.6-2.1 0.2-0.5 0.6-0.8 1.4-1.6l0.2-0.2c0.7-0.7 1.1-1.1 1.5-1.3 0.8-0.4 1.7-0.4 2.5 0 0.4 0.2 0.8 0.6 1.5 1.3l0.3 0.3c0.5 0.5 0.7 0.7 0.9 1 0.6 0.9 0.6 2.1 0 3-0.2 0.2-0.4 0.5-0.9 1-0.2 0.1-0.2 0.2-0.3 0.3-0.2 0.3-0.3 0.8-0.2 1.2 0 0.1 0.1 0.2 0.1 0.4z"/><path class="b" d="m18.9 2c2.8 0.3 5.5 1.6 7.5 3.6 2 2 3.3 4.7 3.6 7.5"/><path class="b" d="m18.9 7.6c1.3 0.3 2.6 0.9 3.6 1.9 1 1 1.6 2.3 1.9 3.6"/><path fill-rule="evenodd" class="b" d="m13.5 18.6c-1.7-1.7-3-3.6-4-5.6 0-0.2-0.1-0.3-0.1-0.4-0.1-0.4 0-0.9 0.2-1.2 0.1-0.1 0.1-0.2 0.3-0.3 0.5-0.5 0.7-0.8 0.9-1 0.6-0.9 0.6-2.1 0-3-0.2-0.3-0.4-0.5-0.9-1l-0.3-0.3c-0.7-0.7-1.1-1.1-1.5-1.3-0.8-0.4-1.7-0.4-2.5 0-0.4 0.2-0.8 0.6-1.5 1.3l-0.2 0.2c-0.8 0.8-1.2 1.1-1.4 1.6-0.4 0.6-0.6 1.5-0.6 2.1 0 0.6 0.1 1 0.4 1.8 1.2 4.2 3.4 8.2 6.8 11.5 3.3 3.4 7.3 5.7 11.6 6.9 0.7 0.2 1.1 0.3 1.7 0.3 0.7 0 1.5-0.2 2.1-0.5 0.5-0.3 0.9-0.7 1.6-1.4l0.2-0.3c0.8-0.7 1.1-1.1 1.3-1.5 0.4-0.8 0.4-1.7 0-2.5-0.2-0.4-0.5-0.8-1.3-1.5l-0.3-0.3c-0.4-0.5-0.7-0.7-0.9-0.9-1-0.6-2.2-0.6-3.1 0-0.2 0.2-0.5 0.4-1 0.9-0.1 0.2-0.2 0.3-0.3 0.3-0.3 0.3-0.8 0.4-1.2 0.2-0.1 0-0.2 0-0.4-0.1-2-1-3.9-2.3-5.6-4z"/></svg>