<svg width="128" height="128" viewBox="0 0 128 128" fill="none" xmlns="http://www.w3.org/2000/svg">
<path d="M0 8C0 5.87827 0.842855 3.84344 2.34315 2.34315C3.84344 0.842855 5.87827 0 8 0L120 0C122.122 0 124.157 0.842855 125.657 2.34315C127.157 3.84344 128 5.87827 128 8V120C128 122.122 127.157 124.157 125.657 125.657C124.157 127.157 122.122 128 120 128H8C5.87827 128 3.84344 127.157 2.34315 125.657C0.842855 124.157 0 122.122 0 120V8ZM32 8V56H96V8H32ZM96 72H32V120H96V72ZM8 8V24H24V8H8ZM24 32H8V48H24V32ZM8 56V72H24V56H8ZM24 80H8V96H24V80ZM8 104V120H24V104H8ZM120 8H104V24H120V8ZM104 32V48H120V32H104ZM120 56H104V72H120V56ZM104 80V96H120V80H104ZM120 104H104V120H120V104Z" fill="url(#paint0_linear_20_30)"/>
<defs>
<linearGradient id="paint0_linear_20_30" x1="5.92971" y1="-15.534" x2="138.826" y2="2.05259" gradientUnits="userSpaceOnUse">
<stop stop-color="#793EB4"/>
<stop offset="1" stop-color="#FF015C"/>
</linearGradient>
</defs>
</svg>
