<svg width="129" height="128" viewBox="0 0 129 128" fill="none" xmlns="http://www.w3.org/2000/svg">
<path d="M104.5 52C104.5 50.9391 104.079 49.9217 103.328 49.1716C102.578 48.4214 101.561 48 100.5 48H60.5C59.4391 48 58.4217 48.4214 57.6716 49.1716C56.9214 49.9217 56.5 50.9391 56.5 52C56.5 53.0609 56.9214 54.0783 57.6716 54.8284C58.4217 55.5786 59.4391 56 60.5 56H100.5C101.561 56 102.578 55.5786 103.328 54.8284C104.079 54.0783 104.5 53.0609 104.5 52ZM104.5 76C104.5 74.9391 104.079 73.9217 103.328 73.1716C102.578 72.4214 101.561 72 100.5 72H60.5C59.4391 72 58.4217 72.4214 57.6716 73.1716C56.9214 73.9217 56.5 74.9391 56.5 76C56.5 77.0609 56.9214 78.0783 57.6716 78.8284C58.4217 79.5786 59.4391 80 60.5 80H100.5C101.561 80 102.578 79.5786 103.328 78.8284C104.079 78.0783 104.5 77.0609 104.5 76ZM100.5 96C101.561 96 102.578 96.4214 103.328 97.1716C104.079 97.9217 104.5 98.9391 104.5 100C104.5 101.061 104.079 102.078 103.328 102.828C102.578 103.579 101.561 104 100.5 104H60.5C59.4391 104 58.4217 103.579 57.6716 102.828C56.9214 102.078 56.5 101.061 56.5 100C56.5 98.9391 56.9214 97.9217 57.6716 97.1716C58.4217 96.4214 59.4391 96 60.5 96H100.5Z" fill="url(#paint0_linear_20_60)"/>
<path d="M112.5 0C116.743 0 120.813 1.68571 123.814 4.68629C126.814 7.68687 128.5 11.7565 128.5 16V112C128.5 116.243 126.814 120.313 123.814 123.314C120.813 126.314 116.743 128 112.5 128H16.5C12.2565 128 8.18687 126.314 5.18629 123.314C2.18571 120.313 0.5 116.243 0.5 112V16C0.5 11.7565 2.18571 7.68687 5.18629 4.68629C8.18687 1.68571 12.2565 0 16.5 0L112.5 0ZM16.5 8C14.3783 8 12.3434 8.84285 10.8431 10.3431C9.34285 11.8434 8.5 13.8783 8.5 16V24H120.5V16C120.5 13.8783 119.657 11.8434 118.157 10.3431C116.657 8.84285 114.622 8 112.5 8H16.5ZM8.5 32V112C8.5 114.122 9.34285 116.157 10.8431 117.657C12.3434 119.157 14.3783 120 16.5 120H32.5V32H8.5ZM40.5 32V120H112.5C114.622 120 116.657 119.157 118.157 117.657C119.657 116.157 120.5 114.122 120.5 112V32H40.5Z" fill="url(#paint1_linear_20_60)"/>
<defs>
<linearGradient id="paint0_linear_20_60" x1="58.7236" y1="41.2039" x2="108.788" y2="46.8826" gradientUnits="userSpaceOnUse">
<stop stop-color="#793EB4"/>
<stop offset="1" stop-color="#FF015C"/>
</linearGradient>
<linearGradient id="paint1_linear_20_60" x1="6.42971" y1="-15.534" x2="139.326" y2="2.05259" gradientUnits="userSpaceOnUse">
<stop stop-color="#793EB4"/>
<stop offset="1" stop-color="#FF015C"/>
</linearGradient>
</defs>
</svg>
