<svg width="32" height="32" viewBox="0 0 32 32" fill="none" xmlns="http://www.w3.org/2000/svg">
<path d="M27.2655 27.266H22.5241V19.8406C22.5241 18.07 22.4925 15.7906 20.0581 15.7906C17.5886 15.7906 17.2108 17.7198 17.2108 19.7117V27.2655H12.4694V11.9959H17.0211V14.0827H17.0848C18.013 12.4957 19.7387 11.5479 21.5758 11.6161C26.3814 11.6161 27.2675 14.7771 27.2675 18.8894L27.2655 27.266ZM7.11951 9.90867C5.5999 9.90894 4.36779 8.67725 4.36752 7.15761C4.36725 5.63797 5.59891 4.40584 7.11852 4.40556C8.63813 4.40529 9.87023 5.63698 9.87051 7.15662C9.87064 7.88638 9.58087 8.5863 9.06496 9.10241C8.54905 9.61852 7.84925 9.90854 7.11951 9.90867ZM9.49021 27.266H4.74387V11.9959H9.49021V27.266ZM29.6293 0.0023861H2.36132C1.07257 -0.0121577 0.0157284 1.02017 0 2.30893V29.6906C0.0151899 30.98 1.07195 32.0133 2.36132 31.9998H29.6293C30.9212 32.0158 31.9821 30.9825 32 29.6906V2.30695C31.9816 1.01565 30.9206 -0.0166202 29.6293 0.000202735" fill="white"/>
</svg>
