<svg width="32" height="32" viewBox="0 0 32 32" fill="none" xmlns="http://www.w3.org/2000/svg">
<path fill-rule="evenodd" clip-rule="evenodd" d="M3 3C1.34315 3 0 4.34315 0 6V6.64804L0.57943 7.05998L13.6433 16.3476C14.7698 17.1484 15.1215 17.3784 15.4714 17.467C15.8186 17.5548 16.1814 17.5548 16.5286 17.467C16.8785 17.3784 17.2302 17.1484 18.3567 16.3476L31.4206 7.05998L32 6.64804V6C32 4.34315 30.6569 3 29 3H3ZM32 9.10196L19.5156 17.9776L19.3689 18.082C18.4552 18.7325 17.78 19.2132 17.0194 19.4058C16.3501 19.5752 15.6499 19.5752 14.9806 19.4058C14.22 19.2132 13.5448 18.7325 12.6311 18.082L12.4844 17.9776L0 9.10196V26C0 27.6569 1.34315 29 3 29H29C30.6569 29 32 27.6569 32 26V9.10196Z" fill="white"/>
</svg>
