<svg version="1.2" xmlns="http://www.w3.org/2000/svg" viewBox="0 0 32 32" width="32" height="32"><style>.a{fill:#fff}</style><path fill-rule="evenodd" class="a" d="m16 32c-8.8 0-16-7.2-16-16 0-8.8 7.2-16 16-16 8.8 0 16 7.2 16 16 0 8.8-7.2 16-16 16zm6.4-23.6l-16 6.3c0 0-0.8 0.2-0.7 0.7 0 0.5 0.6 0.7 0.6 0.7l4.1 1.4 9.6-6.2c0 0 0.6-0.3 0.6 0 0 0 0.1 0.1-0.2 0.3-0.3 0.3-7.6 6.9-7.6 6.9l6.5 5.2c1.1 0.4 1.5-0.6 1.5-0.6l2.9-14.3c0-1-1.3-0.4-1.3-0.4zm-9.6 10.2l-0.5 4.4c0.2 0.1 0.4-0.1 0.4-0.1l2.6-2.3z"/></svg>