<svg width="32" height="32" viewBox="0 0 32 32" fill="none" xmlns="http://www.w3.org/2000/svg">
<path fill-rule="evenodd" clip-rule="evenodd" d="M27.9211 3.12038C27.1239 2.39045 23.9112 0.056585 16.756 0.0229697C16.756 0.0229697 8.31374 -0.486062 4.19827 3.28846C1.90763 5.5791 1.10086 8.93102 1.01922 13.0897C0.932782 17.2484 0.822333 25.0327 8.33295 27.1457H8.33775L8.33295 30.368C8.33295 30.368 8.28493 31.6742 9.14452 31.9383C10.0107 32.207 10.5789 31.5614 11.3216 30.7176L11.3216 30.7176C11.4683 30.5509 11.6218 30.3765 11.7857 30.1999C12.3284 29.614 13.0823 28.7496 13.649 28.0917C18.7825 28.5239 22.7347 27.5347 23.1813 27.3906C23.2738 27.3606 23.4048 27.3273 23.5672 27.286C25.2263 26.864 30.1716 25.6062 31.0377 18.5162C32.0221 10.4917 30.5575 5.41102 27.9211 3.12038ZM24.6236 14.7047C24.6253 14.9282 24.4454 15.1108 24.2219 15.1124C23.9984 15.1141 23.8158 14.9343 23.8141 14.7107C23.7957 12.2478 23.0688 10.3333 21.6361 8.9324C20.1984 7.53122 18.4113 6.82319 16.2639 6.80946C16.0403 6.80803 15.8603 6.62567 15.8617 6.40214C15.8631 6.17862 16.0455 5.99858 16.269 6.00001C18.6223 6.01506 20.6109 6.8029 22.2016 8.35316C23.7979 9.91399 24.6036 12.0362 24.6236 14.7047ZM22.4961 13.8861C22.491 14.1096 22.3058 14.2866 22.0823 14.2816C21.8588 14.2765 21.6818 14.0912 21.6869 13.8677C21.7182 12.4895 21.3167 11.3576 20.4775 10.4433C19.6391 9.5299 18.4735 9.02009 16.9485 8.91181C16.7255 8.89598 16.5576 8.70239 16.5735 8.47942C16.5893 8.25646 16.7829 8.08854 17.0058 8.10437C18.7275 8.22662 20.0877 8.82154 21.0739 9.89596C22.0583 10.9685 22.5321 12.3042 22.4961 13.8861ZM20.0365 13.5849C20.2598 13.5741 20.432 13.3843 20.4212 13.1611C20.3345 11.3677 19.3659 10.3674 17.6181 10.2745C17.3949 10.2627 17.2043 10.434 17.1925 10.6572C17.1806 10.8804 17.352 11.071 17.5752 11.0828C18.9033 11.1534 19.5458 11.817 19.6127 13.2002C19.6235 13.4234 19.8132 13.5957 20.0365 13.5849ZM17.6783 18.6023C17.6783 18.6023 18.2497 18.6503 18.5523 18.2709L19.1478 17.5218C19.4359 17.1472 20.1322 16.9119 20.8141 17.2913C21.1935 17.5074 21.8754 17.9252 22.298 18.2373C22.7494 18.5687 23.6762 19.3418 23.6762 19.3418C24.118 19.7116 24.2189 20.259 23.9211 20.8353C23.9211 20.8401 23.9163 20.8449 23.9163 20.8449C23.609 21.3875 23.196 21.9014 22.6726 22.3768L22.663 22.3864C22.2356 22.7418 21.813 22.9483 21.4 22.9963C21.352 23.0059 21.2895 23.0107 21.2175 23.0059C21.035 23.0059 20.8573 22.9819 20.6797 22.9242L20.6652 22.905C20.0266 22.7274 18.9653 22.2759 17.1933 21.3011C16.0407 20.6672 15.0851 20.0189 14.2783 19.3754C13.8509 19.0393 13.4139 18.6551 12.9673 18.2133L12.7945 18.0404C12.3527 17.5938 11.9685 17.1568 11.6323 16.7294C10.9888 15.9227 10.3405 14.9622 9.70666 13.8145C8.73182 12.0425 8.28041 10.9812 8.10273 10.3425L8.08352 10.3281C8.0259 10.1504 7.99708 9.97276 8.00188 9.79027C7.99708 9.71824 8.00188 9.65581 8.01149 9.60779C8.05951 9.1948 8.266 8.77221 8.62137 8.34481L8.63097 8.33521C9.10639 7.81177 9.61542 7.39879 10.1629 7.09144C10.1677 7.09144 10.1725 7.08664 10.1725 7.08664C10.7487 6.78891 11.2962 6.88975 11.666 7.33155C11.6708 7.33636 12.4391 8.25838 12.7705 8.70978C13.0826 9.13718 13.5052 9.81428 13.7165 10.1937C14.0959 10.8756 13.8605 11.5719 13.486 11.86L12.7368 12.4555C12.3575 12.7628 12.4055 13.3295 12.4055 13.3295C12.4055 13.3295 13.5196 17.541 17.6783 18.6023Z" fill="white"/>
</svg>
